# xmcd
# Copyright (C) 1995-1998 Ti Kan
#
# Track frame offsets:
#       150
#       28586
#       53976
#
# Disc length: 942 seconds
#
# Revision: 1
# Processed by: cddbd v1.5.2PL0 Copyright (c) Steve Scherf et al.
# Submitted via: CD-Import v1.0
#
DISCID=1f03ac03
DTITLE=Satie - 
DYEAR=1900
DGENRE=
TTITLE0=Acrobates - Final - Suite
TTITLE1=Prélude Du Rideau Rouge
TTITLE2=Petite Fille Américaine
EXTD=
EXTT0=
EXTT1=
EXTT2=
PLAYORDER=
